<svg width="24" height="24" viewBox="0 0 24 24" fill="none" xmlns="http://www.w3.org/2000/svg">
<path d="M6.59637 10.4392C6.51783 11.066 6.47276 11.5859 6.49258 12.1792C6.50675 12.3915 6.6416 13.1887 6.80936 14.1271C7.23673 16.5179 8.93811 18.6516 11.3667 18.6503C12.3976 18.5364 13.1651 18.4478 13.6198 18.2132C14.5795 17.7181 15.7062 17.1168 16.7403 15.7155C17.1939 15.1009 17.5868 14.4268 17.7055 13.3762C17.8757 11.8702 17.9703 10.5142 17.8074 9.58612C17.6463 8.66847 17.4008 7.77042 16.9902 7.02722C16.6402 6.39383 16.2585 5.75289 15.6318 5.28325C14.9881 4.80095 14.3204 4.3539 13.6496 4.29048C13.0538 4.23414 11.6106 4.31626 9.83049 5.10172C8.15896 5.83926 7.09705 7.45082 6.77633 9.24947C6.7102 9.62034 6.64912 10.0182 6.59637 10.4392Z" fill="#FFCB49"/>
<path d="M6.53234 12.775C6.44743 11.9065 6.49279 11.2658 6.59637 10.4392C6.64912 10.0182 6.7102 9.62034 6.77633 9.24947C7.09705 7.45083 8.15896 5.83926 9.83049 5.10172C11.6106 4.31626 13.0538 4.23414 13.6496 4.29048C14.3204 4.3539 14.9881 4.80095 15.6318 5.28325C16.2585 5.75289 16.6402 6.39383 16.9902 7.02722C17.4008 7.77042 17.6463 8.66847 17.8074 9.58612C17.9703 10.5142 17.8757 11.8702 17.7055 13.3762C17.5868 14.4268 17.1939 15.1009 16.7403 15.7155C15.7062 17.1168 14.5795 17.7181 13.6198 18.2132C13.1651 18.4478 12.3976 18.5364 11.3667 18.6503C8.93811 18.6516 7.23673 16.5179 6.80936 14.1271C6.6416 13.1887 6.50675 12.3915 6.49258 12.1792" stroke="#FFB700" stroke-linecap="round"/>
<path d="M12.5 16C12.5488 16.0305 12.7006 15.7366 12.9057 15.5267C13.1108 15.3167 13.4707 14.8653 13.8055 14.1936C14.1403 13.5219 14.4392 12.6436 14.6328 11.9624C14.8264 11.2812 14.9744 10.2326 15 10" stroke="#FFB700" stroke-linecap="round"/>
<path d="M15 10C15.0854 10.061 15.5968 10.5295 15.6495 11.0351C15.6855 11.3803 15.5863 11.9128 15.5335 12.2685C15.4807 12.6242 15.438 12.7889 15.3246 13.0933C15.2111 13.3977 15.0281 13.8369 14.8667 14.1486C14.7054 14.4602 14.5712 14.631 14.3313 14.8379C14.0913 15.0448 13.7498 15.2827 13.4823 15.4571C13.2148 15.6315 12.6885 15.8377 12.5 16" stroke="#FFB700" stroke-linecap="round"/>
</svg>
