<svg width="24" height="24" viewBox="0 0 24 24" fill="none" xmlns="http://www.w3.org/2000/svg">
<g clip-path="url(#clip0_5751_15)">
<path d="M6.08915 14.9504C6.30978 16.8682 6.3584 17.8336 6.4 18C6.57146 18.2963 6.73022 18.4145 6.89916 18.5093C7.2345 18.6874 7.69655 18.9818 8.73096 19.3499C9.61219 19.5491 11.1393 19.8116 13.0353 19.504C14.8479 19.21 16.445 18.979 16.9627 18.5062C17.068 18.4101 17.1599 18.2466 17.2678 17.914C17.53 17.1059 17.9727 15.4172 18.0967 13.3594C18.1799 11.9786 18.1705 11.2197 17.9899 10.8893C17.8641 10.6593 17.6315 10.4178 17.253 10.2807C16.5574 10.0289 14.9137 9.91444 13.6682 10.0724C13.0073 10.1562 11.6423 10.5455 10.0197 10.9035C9.12114 11.1018 8.5633 11.304 8.03883 11.3539C7.37696 11.4169 6.72072 11.6227 6.27542 11.9111C6.09735 12.0265 5.87218 13.0643 6.08915 14.9504Z" fill="black" stroke="black" stroke-width="1.6" stroke-linecap="round"/>
<path d="M7 11.9007C7 11.8494 7 11.7981 7 11.1971C7 10.596 7 9.44678 7.01539 8.72648C7.03628 7.7488 7.14459 7.32119 7.46346 6.75948C7.70002 6.34275 8.21329 5.73602 8.81061 5.13139C9.40792 4.52677 10.1057 3.96241 10.5626 3.63064C11.1874 3.17696 11.559 3.09116 11.869 3.02897C12.2138 2.9598 12.5232 3.02835 12.802 3.09023C13.1876 3.17582 13.6311 3.38997 14.1476 3.75626C14.8417 4.24852 15.2698 4.79946 15.6154 5.26339C16.1985 6.04619 16.5452 6.81964 16.6385 7.21314C16.6908 7.62933 16.794 8.45363 16.8773 9.23363C16.8879 9.52234 16.8879 10.0046 16.8879 10.5015" stroke="black" stroke-width="1.6" stroke-linecap="round"/>
<path d="M12.8011 15.2859C12.7796 15.221 12.6787 14.8597 12.4344 14.3665L12.6343 13.7673C12.6682 13.7147 12.7357 13.5592 12.671 13.3792C12.5931 13.1626 12.5075 12.9757 12.3606 12.9649C12.2771 12.9588 12.2041 12.9764 12.1407 12.993C12.0103 13.0272 11.7672 13.0293 11.7226 13.17C11.701 13.2381 11.6927 13.3219 11.7386 13.3807C11.7819 13.4363 11.7673 14.1148 11.8527 14.1245C11.8187 14.1867 11.805 14.2873 11.7814 14.3791C11.7321 14.5711 11.6575 14.8906 11.5577 15.2676C11.4463 15.6888 11.3459 16.0003 11.2945 16.1402C11.2172 16.3507 11.0521 16.6231 11.1411 16.6255C11.4665 16.6344 11.6767 16.6616 12.117 16.6437C12.6528 16.622 13.0439 16.63 13.1428 16.6065C13.1829 16.5969 13.2081 16.5723 13.2042 16.5253C13.1948 16.4107 13.1533 16.2814 13.1141 16.1658C13.052 15.9828 12.895 15.5682 12.8011 15.2859Z" fill="white" stroke="white" stroke-width="0.9216" stroke-linecap="round"/>
</g>
<defs>
<clipPath id="clip0_5751_15">
<rect width="24" height="24" fill="white"/>
</clipPath>
</defs>
</svg>
